<?xml version="1.0" encoding="UTF-8"?>
<svg xmlns="http://www.w3.org/2000/svg" viewBox="0 0 320 470" width="320" height="470">
  <style>
    @keyframes blink { 0%,42%,44%,100%{transform:scaleY(1)}43%{transform:scaleY(0.05)} }
    @keyframes bob { 0%,100%{transform:translateY(0)}50%{transform:translateY(-3px)} }
    @keyframes wave { 0%,100%{transform:rotate(0deg)}20%{transform:rotate(-20deg)}40%{transform:rotate(14deg)}60%{transform:rotate(-8deg)} }
    @keyframes floatUp { 0%{opacity:0;transform:translateY(0) scale(.4)}25%{opacity:.9;transform:translateY(-12px) scale(1)}100%{opacity:0;transform:translateY(-50px) scale(.5)} }
    @keyframes steam { 0%{opacity:.7;transform:translateY(0) scaleX(1)}100%{opacity:0;transform:translateY(-18px) scaleX(1.5)} }
    @keyframes pulse { 0%,100%{transform:scale(1)}50%{transform:scale(1.15)} }
    @keyframes tear { 0%{opacity:0;transform:translateY(0)}30%{opacity:1}100%{opacity:0;transform:translateY(20px)} }
    @keyframes cloudFloat { 0%,100%{transform:translateY(0)}50%{transform:translateY(-4px)} }
    @keyframes dotPulse { 0%,100%{opacity:.3}50%{opacity:1} }
    @keyframes confetti1 { 0%{opacity:1;transform:translateY(0) rotate(0deg)}100%{opacity:0;transform:translateY(60px) rotate(360deg)} }
    @keyframes confetti2 { 0%{opacity:1;transform:translateY(0) rotate(0deg)}100%{opacity:0;transform:translateY(55px) rotate(-270deg)} }
    @keyframes zzz { 0%{opacity:0;transform:translate(0,0) scale(.5)}40%{opacity:1}100%{opacity:0;transform:translate(15px,-30px) scale(1.2)} }
    @keyframes starSpin { 0%,100%{transform:scale(1) rotate(0deg)}50%{transform:scale(1.2) rotate(20deg)} }
    @keyframes sparkle { 0%,100%{opacity:.3;transform:scale(.7)}50%{opacity:1;transform:scale(1)} }
    @keyframes nervousShake { 0%,100%{transform:translateX(0)}25%{transform:translateX(-2px)}75%{transform:translateX(2px)} }
    @keyframes sweatDrop { 0%{opacity:0;transform:translateY(-3px)}50%{opacity:1}100%{opacity:0;transform:translateY(8px)} }
    @keyframes fingerGun { 0%,100%{transform:rotate(0deg)}50%{transform:rotate(-8deg)} }
    @keyframes laughShake { 0%,100%{transform:rotate(0deg)}25%{transform:rotate(-2deg)}75%{transform:rotate(2deg)} }
    @keyframes muscleFlash { 0%,100%{opacity:.6}50%{opacity:1} }
  </style>
  <defs>
    <linearGradient id="shirt" x1="0%" y1="0%" x2="0%" y2="100%"><stop offset="0%" stop-color="#43A047"/><stop offset="100%" stop-color="#2E7D32"/></linearGradient>
    <linearGradient id="sk" x1="0%" y1="0%" x2="0%" y2="100%"><stop offset="0%" stop-color="#FFCC99"/><stop offset="100%" stop-color="#F0B070"/></linearGradient>
    <linearGradient id="hr" x1="0%" y1="0%" x2="0%" y2="100%"><stop offset="0%" stop-color="#5D4037"/><stop offset="100%" stop-color="#3E2723"/></linearGradient>
    <linearGradient id="cloudGrad" x1="0%" y1="0%" x2="0%" y2="100%"><stop offset="0%" stop-color="#ffffff"/><stop offset="100%" stop-color="#f5f5f5"/></linearGradient>
    <filter id="cloudSh" x="-25%" y="-25%" width="160%" height="170%">
      <feGaussianBlur in="SourceAlpha" stdDeviation="5" result="blur"/>
      <feOffset in="blur" dx="2" dy="4" result="off"/>
      <feFlood flood-color="#000" flood-opacity=".08" result="color"/>
      <feComposite in="color" in2="off" operator="in" result="shadow"/>
      <feMerge><feMergeNode in="shadow"/><feMergeNode in="SourceGraphic"/></feMerge>
    </filter>
  </defs>
  <g>
    
  <ellipse cx="160" cy="452" rx="65" ry="7" fill="#000" opacity=".06"/>
  <path d="M130,438 C128,448 131,455 153,455 C165,455 168,448 167,440Z" fill="#3E2723"/>
  <path d="M172,438 C170,448 173,455 195,455 C207,455 210,448 209,440Z" fill="#3E2723"/>
  <ellipse cx="148" cy="446" rx="8" ry="3" fill="#5D4037" opacity=".25"/>
  <ellipse cx="190" cy="446" rx="8" ry="3" fill="#5D4037" opacity=".25"/>
  <rect x="138" y="378" width="28" height="60" rx="8" fill="#455A64"/>
  <rect x="174" y="378" width="28" height="60" rx="8" fill="#455A64"/>
  <line x1="152" y1="388" x2="152" y2="430" stroke="#37474F" stroke-width=".6" opacity=".3"/>
  <line x1="188" y1="388" x2="188" y2="430" stroke="#37474F" stroke-width=".6" opacity=".3"/>
  <rect x="128" y="373" width="84" height="9" rx="3" fill="#3E2723"/>
  <rect x="164" y="371" width="12" height="13" rx="2" fill="#FFC107"/>
  <rect x="167" y="374" width="6" height="7" rx="1" fill="#FFB300"/>
  <path d="M130,237 C126,270 124,330 136,375 L204,375 C216,330 214,270 210,237Z" fill="url(#shirt)"/>
  <path d="M152,237 L170,264 L188,237" fill="none" stroke="#C8E6C9" stroke-width="2.5" stroke-linecap="round" stroke-linejoin="round"/>
  <ellipse cx="170" cy="266" rx="6" ry="4.5" fill="#2E7D32"/>
  <polygon points="170,268 161,308 170,316 179,308" fill="#1B5E20"/>
  <polygon points="165,308 170,355 175,308" fill="#0D3B12"/>
  <line x1="164" y1="285" x2="176" y2="280" stroke="#0D3B12" stroke-width=".8" opacity=".3"/>
  <line x1="163" y1="298" x2="177" y2="293" stroke="#0D3B12" stroke-width=".8" opacity=".3"/>
  <circle cx="170" cy="335" r="2.2" fill="#C8E6C9" opacity=".5"/>
  <circle cx="170" cy="350" r="2.2" fill="#C8E6C9" opacity=".5"/>
  <g transform="translate(196,270) scale(.35)">
    <circle cx="0" cy="0" r="14" fill="#1B5E20" opacity=".4"/>
    <path d="M0,-8 C10,-8 13,0 13,6 C13,12 7,15 0,12 C-7,15 -13,12 -13,6 C-13,0 -10,-8 0,-8Z" fill="#66BB6A" opacity=".85"/>
    <line x1="0" y1="-2" x2="0" y2="10" stroke="#2E7D32" stroke-width="1.3"/>
  </g>
    
  <path d="M130,245 C112,265 110,290 128,310" fill="none" stroke="url(#shirt)" stroke-width="20" stroke-linecap="round"/>
  <circle cx="130" cy="312" r="10" fill="url(#sk)"/>
  <path d="M210,245 C225,235 218,215 196,208" fill="none" stroke="url(#shirt)" stroke-width="20" stroke-linecap="round"/>
  <circle cx="193" cy="206" r="9" fill="url(#sk)"/>
  <line x1="188" y1="202" x2="178" y2="200" stroke="#FFCC99" stroke-width="5" stroke-linecap="round"/>
    <rect x="158" y="212" width="24" height="28" rx="5" fill="url(#sk)"/>
  <rect x="158" y="228" width="24" height="10" rx="4" fill="#D4915A" opacity=".12"/>
    <ellipse cx="170" cy="172" rx="46" ry="52" fill="url(#sk)"/>
    <ellipse cx="124" cy="178" rx="8" ry="12" fill="#E8A860"/><ellipse cx="124" cy="178" rx="4.5" ry="7" fill="#D49545" opacity=".3"/>
  <ellipse cx="216" cy="178" rx="8" ry="12" fill="#E8A860"/><ellipse cx="216" cy="178" rx="4.5" ry="7" fill="#D49545" opacity=".3"/>
    <path d="M124,168 C124,128 138,112 170,110 C202,112 216,128 216,168 C216,156 212,138 200,131 C189,126 151,126 140,131 C129,138 124,156 124,168Z" fill="url(#hr)"/>
  <path d="M140,118 C155,112 185,112 200,118" fill="none" stroke="#6D4C41" stroke-width="1.5" opacity=".25"/>
  <path d="M124,168 C122,182 124,190 127,194" fill="none" stroke="#3E2723" stroke-width="7" stroke-linecap="round"/>
  <path d="M216,168 C218,182 216,190 213,194" fill="none" stroke="#3E2723" stroke-width="7" stroke-linecap="round"/>
    <rect x="141" y="160" width="28" height="22" rx="5" fill="none" stroke="#37474F" stroke-width="2.2"/>
  <rect x="173" y="160" width="28" height="22" rx="5" fill="none" stroke="#37474F" stroke-width="2.2"/>
  <rect x="142" y="161" width="26" height="20" rx="4" fill="#B3E5FC" opacity=".04"/>
  <rect x="174" y="161" width="26" height="20" rx="4" fill="#B3E5FC" opacity=".04"/>
  <path d="M169,170 Q171,167 173,170" fill="none" stroke="#37474F" stroke-width="2"/>
  <line x1="141" y1="168" x2="129" y2="165" stroke="#37474F" stroke-width="1.8" stroke-linecap="round"/>
  <line x1="201" y1="168" x2="213" y2="165" stroke="#37474F" stroke-width="1.8" stroke-linecap="round"/>
    
  <ellipse cx="156" cy="170" rx="10" ry="9" fill="white"/><ellipse cx="186" cy="170" rx="10" ry="9" fill="white"/>
  <g style="animation:eyeDart 4s ease-in-out infinite">
    <circle cx="160" cy="167" r="5.5" fill="#3E2723"/><circle cx="190" cy="167" r="5.5" fill="#3E2723"/>
    <circle cx="161" cy="166" r="2.5" fill="#1a1a1a"/><circle cx="191" cy="166" r="2.5" fill="#1a1a1a"/>
    <circle cx="162.5" cy="164.5" r="1.8" fill="white"/><circle cx="192.5" cy="164.5" r="1.8" fill="white"/>
  </g>
  <path d="M144,155 C151,152 162,153 168,157" fill="none" stroke="#3E2723" stroke-width="2.5" stroke-linecap="round"/>
  <g style="animation:browTwitch 3s ease-in-out infinite">
    <path d="M174,150 C180,145 192,146 199,152" fill="none" stroke="#3E2723" stroke-width="2.5" stroke-linecap="round"/>
  </g>
  <g style="transform-origin:170px 200px; animation:mouthQuiver 3s ease-in-out infinite">
    <path d="M160,200 C164,197 176,197 180,200" fill="none" stroke="#B0816B" stroke-width="2.2" stroke-linecap="round"/>
  </g>
  <ellipse cx="140" cy="190" rx="8" ry="4.5" fill="#FFAB91" opacity=".18"/><ellipse cx="200" cy="190" rx="8" ry="4.5" fill="#FFAB91" opacity=".18"/>
  </g>
</svg>