<svg xmlns="http://www.w3.org/2000/svg" viewBox="0 0 600 700" width="600" height="700">
  <defs>
    <style>
      @keyframes wave {
        0%, 100% { transform: rotate(0deg); }
        15% { transform: rotate(-25deg); }
        30% { transform: rotate(18deg); }
        45% { transform: rotate(-15deg); }
        60% { transform: rotate(10deg); }
        75% { transform: rotate(-5deg); }
      }

      @keyframes blink {
        0%, 40%, 44%, 100% { transform: scaleY(1); }
        42% { transform: scaleY(0.05); }
      }

      @keyframes bob {
        0%, 100% { transform: translateY(0); }
        50% { transform: translateY(-5px); }
      }

      @keyframes floatHeart {
        0% { opacity: 0; transform: translateY(0) scale(0.3) rotate(0deg); }
        20% { opacity: 1; transform: translateY(-15px) scale(1) rotate(-10deg); }
        80% { opacity: 0.6; transform: translateY(-50px) scale(0.8) rotate(10deg); }
        100% { opacity: 0; transform: translateY(-70px) scale(0.4) rotate(-5deg); }
      }

      @keyframes writeOn {
        0% { stroke-dashoffset: 300; opacity: 0; }
        5% { opacity: 1; }
        100% { stroke-dashoffset: 0; opacity: 1; }
      }

      @keyframes shine {
        0%, 80%, 100% { opacity: 0; transform: translateX(0); }
        88% { opacity: 0.7; transform: translateX(5px); }
        95% { opacity: 0; transform: translateX(10px); }
      }

      @keyframes breathe {
        0%, 100% { transform: scaleX(1) scaleY(1); }
        50% { transform: scaleX(1.012) scaleY(1.005); }
      }

      @keyframes pointerTap {
        0%, 100% { transform: rotate(0deg); }
        40% { transform: rotate(-6deg); }
        60% { transform: rotate(2deg); }
      }

      @keyframes phoneGlow {
        0%, 100% { opacity: 0.3; }
        50% { opacity: 0.8; }
      }

      @keyframes sparkle {
        0%, 100% { opacity: 0; transform: scale(0); }
        50% { opacity: 1; transform: scale(1); }
      }

      @keyframes pendulum {
        0%, 100% { transform: rotate(-3deg); }
        50% { transform: rotate(3deg); }
      }

      @keyframes chalkDust {
        0% { opacity: 0.8; transform: translateY(0) scale(1); }
        100% { opacity: 0; transform: translateY(15px) scale(0.2); }
      }

      @keyframes bookHover {
        0%, 100% { transform: translateY(0) rotate(0deg); }
        50% { transform: translateY(-3px) rotate(-1deg); }
      }

      @keyframes leafSway {
        0%, 100% { transform: rotate(-5deg); }
        50% { transform: rotate(5deg); }
      }

      @keyframes gradientShift {
        0%, 100% { stop-color: #43A047; }
        50% { stop-color: #66BB6A; }
      }

      @keyframes eyeTrack {
        0%, 30%, 100% { transform: translateX(0); }
        40%, 60% { transform: translateX(-2px); }
        70%, 90% { transform: translateX(1px); }
      }

      .teacher-body { animation: bob 3.5s ease-in-out infinite; }
      .wave-hand { transform-origin: 430px 260px; animation: wave 2.5s ease-in-out infinite; }
      .eyes { transform-origin: center; animation: blink 5s ease-in-out infinite; }
      .eye-pupils { animation: eyeTrack 6s ease-in-out infinite; }
      .pointer-arm { transform-origin: 175px 320px; animation: pointerTap 3s ease-in-out infinite; }
      .heart1 { animation: floatHeart 4s ease-out infinite; }
      .heart2 { animation: floatHeart 4s ease-out 1.3s infinite; }
      .heart3 { animation: floatHeart 4s ease-out 2.6s infinite; }
      .heart4 { animation: floatHeart 4.5s ease-out 0.7s infinite; }
      .chalk-text { stroke-dasharray: 300; animation: writeOn 4s ease-out forwards; }
      .chalk-text2 { stroke-dasharray: 300; animation: writeOn 4s ease-out 1.5s forwards; }
      .chalk-text3 { stroke-dasharray: 300; animation: writeOn 4s ease-out 3s forwards; }
      .glasses-shine { animation: shine 6s ease-in-out infinite; }
      .torso { transform-origin: center 400px; animation: breathe 4s ease-in-out infinite; }
      .phone-glow { animation: phoneGlow 2s ease-in-out infinite; }
      .sparkle1 { animation: sparkle 2s ease-in-out infinite; }
      .sparkle2 { animation: sparkle 2s ease-in-out 0.7s infinite; }
      .sparkle3 { animation: sparkle 2s ease-in-out 1.4s infinite; }
      .lanyard { transform-origin: 320px 290px; animation: pendulum 4s ease-in-out infinite; }
      .chalk-dust { animation: chalkDust 2s ease-out infinite; }
      .book { animation: bookHover 4s ease-in-out infinite; }
      .leaf-logo { transform-origin: center; animation: leafSway 3s ease-in-out infinite; }
    </style>

    <!-- Gradients -->
    <linearGradient id="bgGrad" x1="0%" y1="0%" x2="0%" y2="100%">
      <stop offset="0%" stop-color="#E8F5E9"/>
      <stop offset="60%" stop-color="#F1F8E9"/>
      <stop offset="100%" stop-color="#FFFDE7"/>
    </linearGradient>

    <linearGradient id="greenShirt" x1="0%" y1="0%" x2="0%" y2="100%">
      <stop offset="0%" stop-color="#43A047"/>
      <stop offset="50%" stop-color="#388E3C"/>
      <stop offset="100%" stop-color="#2E7D32"/>
    </linearGradient>

    <linearGradient id="greenShirtShadow" x1="100%" y1="0%" x2="0%" y2="100%">
      <stop offset="0%" stop-color="#2E7D32" stop-opacity="0"/>
      <stop offset="100%" stop-color="#1B5E20" stop-opacity="0.4"/>
    </linearGradient>

    <linearGradient id="darkGreen" x1="0%" y1="0%" x2="100%" y2="100%">
      <stop offset="0%" stop-color="#2E7D32"/>
      <stop offset="100%" stop-color="#1B5E20"/>
    </linearGradient>

    <linearGradient id="boardGrad" x1="0%" y1="0%" x2="0%" y2="100%">
      <stop offset="0%" stop-color="#33473a"/>
      <stop offset="100%" stop-color="#1e2e22"/>
    </linearGradient>

    <linearGradient id="boardFrame" x1="0%" y1="0%" x2="0%" y2="100%">
      <stop offset="0%" stop-color="#A1887F"/>
      <stop offset="50%" stop-color="#8D6E63"/>
      <stop offset="100%" stop-color="#6D4C41"/>
    </linearGradient>

    <linearGradient id="skin" x1="0%" y1="0%" x2="0%" y2="100%">
      <stop offset="0%" stop-color="#FFCC99"/>
      <stop offset="100%" stop-color="#F0B070"/>
    </linearGradient>

    <linearGradient id="skinShadow" x1="100%" y1="0%" x2="0%" y2="100%">
      <stop offset="0%" stop-color="#F0B070" stop-opacity="0"/>
      <stop offset="100%" stop-color="#D4915A" stop-opacity="0.5"/>
    </linearGradient>

    <linearGradient id="hair" x1="0%" y1="0%" x2="0%" y2="100%">
      <stop offset="0%" stop-color="#5D4037"/>
      <stop offset="100%" stop-color="#3E2723"/>
    </linearGradient>

    <linearGradient id="pants" x1="0%" y1="0%" x2="0%" y2="100%">
      <stop offset="0%" stop-color="#455A64"/>
      <stop offset="100%" stop-color="#263238"/>
    </linearGradient>

    <linearGradient id="shoe" x1="0%" y1="0%" x2="0%" y2="100%">
      <stop offset="0%" stop-color="#4E342E"/>
      <stop offset="100%" stop-color="#3E2723"/>
    </linearGradient>

    <linearGradient id="phoneScreen" x1="0%" y1="0%" x2="0%" y2="100%">
      <stop offset="0%" stop-color="#C8E6C9"/>
      <stop offset="100%" stop-color="#A5D6A7"/>
    </linearGradient>

    <linearGradient id="tieGrad" x1="0%" y1="0%" x2="100%" y2="100%">
      <stop offset="0%" stop-color="#66BB6A"/>
      <stop offset="50%" stop-color="#43A047"/>
      <stop offset="100%" stop-color="#2E7D32"/>
    </linearGradient>

    <linearGradient id="podiumGrad" x1="0%" y1="0%" x2="0%" y2="100%">
      <stop offset="0%" stop-color="#8D6E63"/>
      <stop offset="100%" stop-color="#5D4037"/>
    </linearGradient>

    <linearGradient id="bookCover" x1="0%" y1="0%" x2="100%" y2="0%">
      <stop offset="0%" stop-color="#C62828"/>
      <stop offset="100%" stop-color="#E53935"/>
    </linearGradient>

    <!-- Filters -->
    <filter id="softShadow" x="-20%" y="-20%" width="140%" height="140%">
      <feGaussianBlur in="SourceAlpha" stdDeviation="4"/>
      <feOffset dx="3" dy="5" result="shadow"/>
      <feFlood flood-color="#000" flood-opacity="0.15"/>
      <feComposite in2="shadow" operator="in"/>
      <feMerge>
        <feMergeNode/>
        <feMergeNode in="SourceGraphic"/>
      </feMerge>
    </filter>

    <filter id="boardShadow" x="-10%" y="-10%" width="120%" height="120%">
      <feGaussianBlur in="SourceAlpha" stdDeviation="6"/>
      <feOffset dx="4" dy="6"/>
      <feFlood flood-color="#000" flood-opacity="0.2"/>
      <feComposite in2="offsetBlur" operator="in"/>
      <feMerge>
        <feMergeNode/>
        <feMergeNode in="SourceGraphic"/>
      </feMerge>
    </filter>

    <filter id="glow" x="-50%" y="-50%" width="200%" height="200%">
      <feGaussianBlur stdDeviation="3" result="blur"/>
      <feMerge>
        <feMergeNode in="blur"/>
        <feMergeNode in="SourceGraphic"/>
      </feMerge>
    </filter>

    <!-- Clip paths -->
    <clipPath id="boardClip">
      <rect x="48" y="78" width="210" height="155" rx="2"/>
    </clipPath>
  </defs>

  <!-- ====== BACKGROUND ====== -->
  <rect width="600" height="700" fill="url(#bgGrad)" rx="16"/>

  <!-- Subtle wall pattern -->
  <g opacity="0.03">
    <line x1="0" y1="0" x2="600" y2="0" stroke="#4CAF50" stroke-width="1"/>
    <line x1="0" y1="40" x2="600" y2="40" stroke="#4CAF50" stroke-width="1"/>
    <line x1="0" y1="80" x2="600" y2="80" stroke="#4CAF50" stroke-width="1"/>
    <line x1="0" y1="120" x2="600" y2="120" stroke="#4CAF50" stroke-width="1"/>
    <line x1="0" y1="160" x2="600" y2="160" stroke="#4CAF50" stroke-width="1"/>
    <line x1="0" y1="200" x2="600" y2="200" stroke="#4CAF50" stroke-width="1"/>
  </g>

  <!-- Floor -->
  <rect x="0" y="600" width="600" height="100" fill="#D7CCC8" opacity="0.3" rx="0"/>
  <line x1="0" y1="600" x2="600" y2="600" stroke="#BCAAA4" stroke-width="1" opacity="0.4"/>

  <!-- ====== CHALKBOARD ====== -->
  <g filter="url(#boardShadow)">
    <!-- Frame -->
    <rect x="35" y="62" width="240" height="180" rx="5" fill="url(#boardFrame)"/>
    <!-- Frame inner bevel -->
    <rect x="39" y="66" width="232" height="172" rx="4" fill="none" stroke="#6D4C41" stroke-width="1" opacity="0.5"/>
    <!-- Board surface -->
    <rect x="48" y="78" width="214" height="152" rx="2" fill="url(#boardGrad)"/>
    <!-- Chalk smudge marks -->
    <g clip-path="url(#boardClip)" opacity="0.06">
      <ellipse cx="120" cy="140" rx="60" ry="30" fill="white"/>
      <ellipse cx="200" cy="100" rx="40" ry="25" fill="white"/>
      <ellipse cx="80" cy="180" rx="50" ry="20" fill="white"/>
    </g>

    <!-- Chalk tray -->
    <path d="M40,242 L42,250 L268,250 L270,242 Z" fill="#795548"/>
    <rect x="42" y="248" width="226" height="5" rx="1" fill="#6D4C41"/>
    <!-- Chalk pieces -->
    <rect x="70" y="244" width="28" height="7" rx="3" fill="#FFFDE7" opacity="0.9"/>
    <rect x="108" y="244" width="22" height="7" rx="3" fill="#A5D6A7" opacity="0.9"/>
    <rect x="140" y="244" width="18" height="7" rx="3" fill="#EF9A9A" opacity="0.85"/>
    <!-- Eraser -->
    <rect x="200" y="242" width="40" height="10" rx="2" fill="#EFEBE9"/>
    <rect x="200" y="242" width="40" height="5" rx="2" fill="#D7CCC8"/>
  </g>

  <!-- Board Content -->
  <g clip-path="url(#boardClip)">
    <!-- Title -->
    <text class="chalk-text" x="85" y="115" font-family="'Segoe UI', Arial, sans-serif" font-size="26" font-weight="bold"
          fill="none" stroke="#A5D6A7" stroke-width="1.3" letter-spacing="2" opacity="0">
      GreenGo
    </text>

    <!-- Decorative underline -->
    <path class="chalk-text2" d="M80,122 C100,125 180,125 210,122" fill="none" stroke="#81C784" stroke-width="1" opacity="0"/>

    <!-- Heart drawn in chalk -->
    <path class="chalk-text2" d="M135,145 C135,133 152,125 158,140 C164,125 181,133 181,145 C181,162 158,175 158,175 C158,175 135,162 135,145Z"
          fill="none" stroke="#EF9A9A" stroke-width="1.8" opacity="0"/>

    <!-- Subtitle -->
    <text class="chalk-text3" x="80" y="210" font-family="'Segoe UI', Arial, sans-serif" font-size="17"
          fill="none" stroke="#FFFDE7" stroke-width="0.8" opacity="0" letter-spacing="1">
      Dating 101
    </text>

    <!-- Small checkmarks -->
    <g class="chalk-text3" opacity="0">
      <path d="M72,198 L76,202 L84,194" fill="none" stroke="#A5D6A7" stroke-width="1.5" stroke-linecap="round"/>
      <text x="90" y="202" font-family="Arial" font-size="11" fill="#FFFDE7" opacity="0.7">Swipe Right</text>
    </g>

    <!-- Chalk dust particles -->
    <circle class="chalk-dust" cx="210" cy="122" r="1.5" fill="white" opacity="0" style="animation-delay: 2s"/>
    <circle class="chalk-dust" cx="205" cy="118" r="1" fill="white" opacity="0" style="animation-delay: 2.3s"/>
    <circle class="chalk-dust" cx="215" cy="125" r="1.2" fill="white" opacity="0" style="animation-delay: 2.6s"/>
  </g>

  <!-- Floating hearts from board -->
  <g class="heart1" opacity="0">
    <path d="M210,105 C210,99 218,95 222,101 C226,95 234,99 234,105 C234,114 222,120 222,120 C222,120 210,114 210,105Z"
          fill="#E91E63" opacity="0.7" filter="url(#glow)"/>
  </g>
  <g class="heart2" opacity="0">
    <path d="M60,130 C60,125 66,122 69,127 C72,122 78,125 78,130 C78,137 69,141 69,141 C69,141 60,137 60,130Z"
          fill="#F48FB1" opacity="0.6"/>
  </g>
  <g class="heart3" opacity="0">
    <path d="M180,85 C180,81 185,79 187,82 C189,79 194,81 194,85 C194,90 187,93 187,93 C187,93 180,90 180,85Z"
          fill="#CE93D8" opacity="0.5"/>
  </g>
  <g class="heart4" opacity="0">
    <path d="M250,115 C250,111 254,109 256,112 C258,109 262,111 262,115 C262,119 256,122 256,122 C256,122 250,119 250,115Z"
          fill="#81C784" opacity="0.6"/>
  </g>

  <!-- Sparkles -->
  <g class="sparkle1" opacity="0">
    <path d="M245,80 L247,75 L249,80 L254,82 L249,84 L247,89 L245,84 L240,82 Z" fill="#FFC107" opacity="0.7"/>
  </g>
  <g class="sparkle2" opacity="0">
    <path d="M68,95 L69.5,91 L71,95 L75,96.5 L71,98 L69.5,102 L68,98 L64,96.5 Z" fill="#FFC107" opacity="0.6"/>
  </g>
  <g class="sparkle3" opacity="0">
    <path d="M175,68 L176,65 L177,68 L180,69 L177,70 L176,73 L175,70 L172,69 Z" fill="#FFC107" opacity="0.5"/>
  </g>

  <!-- ====== PODIUM / DESK ====== -->
  <g filter="url(#softShadow)">
    <!-- Podium front -->
    <path d="M120,510 L130,580 L390,580 L400,510 Z" fill="url(#podiumGrad)" />
    <!-- Podium top -->
    <path d="M115,505 L120,510 L400,510 L405,505 Z" fill="#A1887F"/>
    <rect x="115" y="498" width="290" height="10" rx="3" fill="#8D6E63"/>
    <!-- Podium detail line -->
    <line x1="145" y1="530" x2="375" y2="530" stroke="#6D4C41" stroke-width="1" opacity="0.5"/>
    <!-- GreenGo emblem on podium -->
    <g transform="translate(260, 552) scale(0.6)">
      <circle cx="0" cy="0" r="18" fill="#2E7D32" opacity="0.3"/>
      <text x="-13" y="5" font-family="'Segoe UI', Arial" font-size="12" font-weight="bold" fill="#A5D6A7" opacity="0.5">GG</text>
    </g>
  </g>

  <!-- ====== BOOK ON PODIUM ====== -->
  <g class="book" filter="url(#softShadow)">
    <g transform="translate(150, 478) rotate(-8)">
      <!-- Book body -->
      <rect x="0" y="0" width="55" height="38" rx="2" fill="url(#bookCover)"/>
      <!-- Book spine -->
      <rect x="0" y="0" width="6" height="38" rx="1" fill="#B71C1C"/>
      <!-- Book pages -->
      <rect x="6" y="3" width="46" height="32" rx="1" fill="#FFF8E1"/>
      <line x1="10" y1="10" x2="45" y2="10" stroke="#D7CCC8" stroke-width="0.5"/>
      <line x1="10" y1="15" x2="40" y2="15" stroke="#D7CCC8" stroke-width="0.5"/>
      <line x1="10" y1="20" x2="43" y2="20" stroke="#D7CCC8" stroke-width="0.5"/>
      <line x1="10" y1="25" x2="38" y2="25" stroke="#D7CCC8" stroke-width="0.5"/>
      <!-- Heart on book cover -->
      <path d="M28,8 C28,5 32,3 34,6 C36,3 40,5 40,8 C40,13 34,16 34,16 C34,16 28,13 28,8Z"
            fill="none" stroke="#FFCDD2" stroke-width="1"/>
    </g>
  </g>

  <!-- ====== APPLE ON PODIUM ====== -->
  <g transform="translate(370, 472)" filter="url(#softShadow)">
    <ellipse cx="0" cy="8" rx="14" ry="13" fill="#D32F2F"/>
    <ellipse cx="-3" cy="8" rx="12" ry="13" fill="#E53935"/>
    <!-- Apple highlight -->
    <ellipse cx="-6" cy="3" rx="5" ry="7" fill="#EF5350" opacity="0.5"/>
    <!-- Stem -->
    <path d="M0,0 C2,-6 4,-10 3,-14" fill="none" stroke="#5D4037" stroke-width="2" stroke-linecap="round"/>
    <!-- Leaf -->
    <g class="leaf-logo">
      <path d="M3,-12 C8,-16 14,-14 12,-9" fill="#43A047" stroke="#2E7D32" stroke-width="0.5"/>
    </g>
  </g>

  <!-- ====== PHONE ON PODIUM ====== -->
  <g transform="translate(330, 476) rotate(5)">
    <rect x="0" y="0" width="26" height="42" rx="4" fill="#263238"/>
    <rect x="2" y="4" width="22" height="32" rx="1" fill="url(#phoneScreen)"/>
    <!-- App icon on phone -->
    <circle cx="13" cy="18" r="6" fill="#2E7D32"/>
    <text x="9" y="21" font-family="Arial" font-size="7" font-weight="bold" fill="white">G</text>
    <!-- Notification dot -->
    <circle class="phone-glow" cx="20" cy="10" r="3" fill="#E91E63" filter="url(#glow)"/>
    <!-- Home button -->
    <circle cx="13" cy="39" r="2" fill="none" stroke="#455A64" stroke-width="0.8"/>
  </g>

  <!-- ====== TEACHER CHARACTER ====== -->
  <g class="teacher-body" filter="url(#softShadow)">

    <!-- ====== LEGS ====== -->
    <rect x="270" y="490" width="36" height="85" rx="8" fill="url(#pants)"/>
    <rect x="320" y="490" width="36" height="85" rx="8" fill="url(#pants)"/>
    <!-- Crease lines -->
    <line x1="288" y1="500" x2="288" y2="560" stroke="#37474F" stroke-width="0.8" opacity="0.3"/>
    <line x1="338" y1="500" x2="338" y2="560" stroke="#37474F" stroke-width="0.8" opacity="0.3"/>
    <!-- Shoes -->
    <path d="M260,568 C258,580 262,588 290,588 C305,588 310,580 308,570 L270,568Z" fill="url(#shoe)"/>
    <path d="M312,568 C310,580 314,588 342,588 C357,588 362,580 360,570 L322,568Z" fill="url(#shoe)"/>
    <!-- Shoe shine -->
    <ellipse cx="280" cy="578" rx="10" ry="4" fill="#5D4037" opacity="0.3"/>
    <ellipse cx="332" cy="578" rx="10" ry="4" fill="#5D4037" opacity="0.3"/>
    <!-- Belt -->
    <rect x="255" y="486" width="118" height="12" rx="3" fill="#3E2723"/>
    <rect x="306" y="484" width="16" height="16" rx="2" fill="#FFD54F"/>
    <rect x="310" y="488" width="8" height="8" rx="1" fill="#FFC107"/>

    <!-- ====== TORSO ====== -->
    <g class="torso">
      <!-- Shirt body -->
      <path d="M255,300 C248,340 245,420 262,490 L365,490 C382,420 380,340 372,300 Z"
            fill="url(#greenShirt)"/>
      <!-- Shirt shading -->
      <path d="M255,300 C248,340 245,420 262,490 L365,490 C382,420 380,340 372,300 Z"
            fill="url(#greenShirtShadow)"/>

      <!-- Collar -->
      <path d="M285,300 L313,340 L342,300" fill="none" stroke="#E8F5E9" stroke-width="3.5" stroke-linecap="round" stroke-linejoin="round"/>
      <!-- Collar shadow -->
      <path d="M290,305 L313,338" fill="none" stroke="#1B5E20" stroke-width="1" opacity="0.2"/>
      <path d="M336,305 L313,338" fill="none" stroke="#1B5E20" stroke-width="1" opacity="0.2"/>

      <!-- Tie -->
      <polygon points="313,335 300,395 313,408 326,395" fill="url(#tieGrad)"/>
      <polygon points="306,395 313,460 320,395" fill="#1B5E20"/>
      <!-- Tie knot -->
      <ellipse cx="313" cy="337" rx="7" ry="5" fill="#2E7D32"/>
      <!-- Tie stripe -->
      <line x1="307" y1="365" x2="319" y2="358" stroke="#1B5E20" stroke-width="1" opacity="0.4"/>
      <line x1="305" y1="380" x2="321" y2="373" stroke="#1B5E20" stroke-width="1" opacity="0.4"/>

      <!-- Pocket -->
      <path d="M340,370 L340,405 L368,405 L368,370" fill="none" stroke="#2E7D32" stroke-width="1.5"/>
      <!-- Pocket square -->
      <path d="M345,370 L348,358 L355,370" fill="#E8F5E9" opacity="0.7"/>

      <!-- Buttons -->
      <circle cx="313" cy="420" r="3" fill="#E8F5E9" opacity="0.6"/>
      <circle cx="313" cy="445" r="3" fill="#E8F5E9" opacity="0.6"/>
      <circle cx="313" cy="470" r="3" fill="#E8F5E9" opacity="0.6"/>

      <!-- GreenGo leaf badge -->
      <g transform="translate(352, 340) scale(0.5)" class="leaf-logo">
        <circle cx="0" cy="0" r="16" fill="#1B5E20" opacity="0.5"/>
        <path d="M0,-10 C12,-10 16,0 16,8 C16,16 8,20 0,16 C-8,20 -16,16 -16,8 C-16,0 -12,-10 0,-10Z"
              fill="#66BB6A" opacity="0.9"/>
        <line x1="0" y1="-3" x2="0" y2="14" stroke="#2E7D32" stroke-width="1.5"/>
        <path d="M0,4 C-6,0 -8,-4 -6,-6" fill="none" stroke="#2E7D32" stroke-width="1"/>
        <path d="M0,8 C6,4 8,1 6,-1" fill="none" stroke="#2E7D32" stroke-width="1"/>
      </g>
    </g>

    <!-- ====== LANYARD ====== -->
    <g class="lanyard">
      <path d="M300,298 L295,340 L290,380" fill="none" stroke="#1B5E20" stroke-width="2.5"/>
      <!-- ID card -->
      <rect x="278" y="378" width="28" height="36" rx="3" fill="white" stroke="#E0E0E0" stroke-width="1"/>
      <rect x="282" y="382" width="20" height="12" rx="1" fill="#C8E6C9"/>
      <circle cx="292" cy="387" r="4" fill="url(#skin)"/>
      <line x1="284" y1="398" x2="300" y2="398" stroke="#BDBDBD" stroke-width="1"/>
      <line x1="286" y1="402" x2="298" y2="402" stroke="#BDBDBD" stroke-width="0.8"/>
      <line x1="288" y1="406" x2="296" y2="406" stroke="#BDBDBD" stroke-width="0.6"/>
    </g>

    <!-- ====== LEFT ARM (pointer) ====== -->
    <g class="pointer-arm">
      <!-- Shoulder -->
      <ellipse cx="252" cy="308" rx="18" ry="14" fill="url(#greenShirt)"/>
      <!-- Upper arm -->
      <path d="M252,312 C230,330 200,345 180,330" fill="none" stroke="url(#greenShirt)" stroke-width="26" stroke-linecap="round"/>
      <!-- Sleeve cuff -->
      <circle cx="182" cy="328" r="14" fill="#2E7D32"/>
      <!-- Hand -->
      <circle cx="175" cy="322" r="15" fill="url(#skin)"/>
      <!-- Fingers gripping -->
      <path d="M168,318 C164,315 162,320 166,322" fill="url(#skin)" stroke="#E0A060" stroke-width="0.5"/>
      <!-- Pointer stick -->
      <line x1="168" y1="318" x2="95" y2="215" stroke="#8D6E63" stroke-width="5" stroke-linecap="round"/>
      <line x1="168" y1="318" x2="95" y2="215" stroke="#A1887F" stroke-width="2" stroke-linecap="round"/>
      <!-- Pointer tip -->
      <circle cx="93" cy="212" r="5" fill="#F44336"/>
      <circle cx="91" cy="210" r="2" fill="#FFCDD2" opacity="0.5"/>
    </g>

    <!-- ====== RIGHT ARM (waving) ====== -->
    <g class="wave-hand">
      <!-- Shoulder -->
      <ellipse cx="375" cy="308" rx="18" ry="14" fill="url(#greenShirt)"/>
      <!-- Upper arm -->
      <path d="M375,310 C395,290 410,275 420,258" fill="none" stroke="url(#greenShirt)" stroke-width="26" stroke-linecap="round"/>
      <!-- Sleeve cuff -->
      <ellipse cx="420" cy="257" rx="14" ry="13" fill="#2E7D32"/>
      <!-- Forearm -->
      <path d="M420,255 C425,238 430,220 435,205" fill="none" stroke="url(#skin)" stroke-width="20" stroke-linecap="round"/>
      <!-- Hand -->
      <ellipse cx="437" cy="198" rx="16" ry="17" fill="url(#skin)"/>
      <!-- Fingers -->
      <path d="M430,190 L425,174" stroke="#FFCC99" stroke-width="6" stroke-linecap="round"/>
      <path d="M436,187 L435,170" stroke="#FFCC99" stroke-width="6" stroke-linecap="round"/>
      <path d="M442,188 L445,172" stroke="#FFCC99" stroke-width="6" stroke-linecap="round"/>
      <path d="M448,193 L454,180" stroke="#FFCC99" stroke-width="5.5" stroke-linecap="round"/>
      <!-- Thumb -->
      <path d="M427,200 L418,195" stroke="#FFCC99" stroke-width="5" stroke-linecap="round"/>
      <!-- Fingertip highlights -->
      <circle cx="425" cy="173" r="2" fill="#FFE0B2" opacity="0.5"/>
      <circle cx="435" cy="169" r="2" fill="#FFE0B2" opacity="0.5"/>
      <circle cx="445" cy="171" r="2" fill="#FFE0B2" opacity="0.5"/>
    </g>

    <!-- ====== HEAD ====== -->
    <g>
      <!-- Neck -->
      <rect x="298" y="272" width="32" height="35" rx="6" fill="url(#skin)"/>
      <!-- Neck shadow -->
      <rect x="298" y="290" width="32" height="15" rx="4" fill="#D4915A" opacity="0.2"/>

      <!-- Head shape -->
      <ellipse cx="314" cy="232" rx="58" ry="65" fill="url(#skin)"/>
      <!-- Face shadow -->
      <ellipse cx="314" cy="240" rx="50" ry="55" fill="url(#skinShadow)"/>

      <!-- ====== HAIR ====== -->
      <!-- Main hair volume -->
      <path d="M256,220 C256,168 275,148 314,145 C353,148 372,168 372,220
               C372,208 368,180 350,170 C335,162 293,162 278,170
               C260,180 256,208 256,220Z"
            fill="url(#hair)"/>
      <!-- Hair texture lines -->
      <path d="M275,165 C285,155 310,150 314,148" fill="none" stroke="#4E342E" stroke-width="1.5" opacity="0.4"/>
      <path d="M353,165 C343,155 318,150 314,148" fill="none" stroke="#4E342E" stroke-width="1.5" opacity="0.4"/>
      <path d="M265,190 C270,175 290,163 314,160" fill="none" stroke="#4E342E" stroke-width="1" opacity="0.3"/>
      <!-- Side hair -->
      <path d="M256,220 C254,238 256,250 260,256" fill="none" stroke="url(#hair)" stroke-width="10" stroke-linecap="round"/>
      <path d="M372,220 C374,238 372,250 368,256" fill="none" stroke="url(#hair)" stroke-width="10" stroke-linecap="round"/>
      <!-- Hair highlight -->
      <path d="M290,155 C300,150 320,150 335,155" fill="none" stroke="#795548" stroke-width="2" opacity="0.3"/>

      <!-- Ears -->
      <ellipse cx="256" cy="238" rx="11" ry="16" fill="#F0B070"/>
      <ellipse cx="256" cy="238" rx="6" ry="10" fill="#E8A050" opacity="0.4"/>
      <ellipse cx="372" cy="238" rx="11" ry="16" fill="#F0B070"/>
      <ellipse cx="372" cy="238" rx="6" ry="10" fill="#E8A050" opacity="0.4"/>

      <!-- ====== GLASSES ====== -->
      <g>
        <!-- Left lens -->
        <rect x="275" y="218" width="36" height="30" rx="6" fill="none" stroke="#37474F" stroke-width="3"/>
        <!-- Right lens -->
        <rect x="317" y="218" width="36" height="30" rx="6" fill="none" stroke="#37474F" stroke-width="3"/>
        <!-- Lens tint -->
        <rect x="276" y="219" width="34" height="28" rx="5" fill="#B3E5FC" opacity="0.06"/>
        <rect x="318" y="219" width="34" height="28" rx="5" fill="#B3E5FC" opacity="0.06"/>
        <!-- Bridge -->
        <path d="M311,232 C313,228 315,228 317,232" fill="none" stroke="#37474F" stroke-width="2.5"/>
        <!-- Temple arms -->
        <path d="M275,228 L260,224" stroke="#37474F" stroke-width="2.5" stroke-linecap="round"/>
        <path d="M353" y1="228" x2="368" y2="224" stroke="#37474F" stroke-width="2.5" stroke-linecap="round"/>
        <line x1="353" y1="228" x2="368" y2="224" stroke="#37474F" stroke-width="2.5" stroke-linecap="round"/>
        <!-- Glasses shine -->
        <rect class="glasses-shine" x="280" y="222" width="12" height="5" rx="2.5" fill="white" opacity="0"/>
      </g>

      <!-- ====== EYES ====== -->
      <g class="eyes">
        <!-- Left eye -->
        <ellipse cx="293" cy="232" rx="13" ry="11" fill="white"/>
        <ellipse cx="293" cy="232" rx="13" ry="11" fill="none" stroke="#E0C8B0" stroke-width="0.5"/>
        <!-- Right eye -->
        <ellipse cx="335" cy="232" rx="13" ry="11" fill="white"/>
        <ellipse cx="335" cy="232" rx="13" ry="11" fill="none" stroke="#E0C8B0" stroke-width="0.5"/>

        <g class="eye-pupils">
          <!-- Left iris -->
          <circle cx="295" cy="233" r="7.5" fill="#4E342E"/>
          <circle cx="295" cy="233" r="5" fill="#3E2723"/>
          <!-- Right iris -->
          <circle cx="337" cy="233" r="7.5" fill="#4E342E"/>
          <circle cx="337" cy="233" r="5" fill="#3E2723"/>
          <!-- Pupils -->
          <circle cx="296" cy="232" r="3" fill="#1a1a1a"/>
          <circle cx="338" cy="232" r="3" fill="#1a1a1a"/>
          <!-- Eye sparkle -->
          <circle cx="298" cy="229" r="2.5" fill="white"/>
          <circle cx="340" cy="229" r="2.5" fill="white"/>
          <circle cx="293" cy="235" r="1.2" fill="white" opacity="0.5"/>
          <circle cx="335" cy="235" r="1.2" fill="white" opacity="0.5"/>
        </g>
      </g>

      <!-- Eyebrows -->
      <path d="M278,212 C285,205 300,204 308,209" fill="none" stroke="#3E2723" stroke-width="3" stroke-linecap="round"/>
      <path d="M320,209 C328,204 343,205 350,212" fill="none" stroke="#3E2723" stroke-width="3" stroke-linecap="round"/>

      <!-- Nose -->
      <path d="M312,242 C309,252 306,258 311,261 C316,263 321,261 319,253"
            fill="none" stroke="#D4915A" stroke-width="2" stroke-linecap="round"/>
      <!-- Nostril hint -->
      <circle cx="310" cy="259" r="1.5" fill="#D4915A" opacity="0.4"/>
      <circle cx="319" cy="258" r="1.5" fill="#D4915A" opacity="0.4"/>

      <!-- Mouth — warm smile -->
      <path d="M295,275 C305,288 323,288 333,275" fill="none" stroke="#C62828" stroke-width="2.8" stroke-linecap="round"/>
      <!-- Upper lip line -->
      <path d="M300,276 C308,272 320,272 328,276" fill="none" stroke="#D4915A" stroke-width="1" opacity="0.5"/>
      <!-- Teeth -->
      <path d="M302,278 C308,284 320,284 326,278" fill="white" opacity="0.8"/>
      <!-- Lower lip -->
      <path d="M300,282 C308,290 320,290 328,282" fill="#E57373" opacity="0.25"/>

      <!-- Cheek blush -->
      <ellipse cx="273" cy="262" rx="14" ry="8" fill="#FFAB91" opacity="0.3"/>
      <ellipse cx="355" cy="262" rx="14" ry="8" fill="#FFAB91" opacity="0.3"/>

      <!-- Smile lines -->
      <path d="M277,268 C279,272 280,276 282,278" fill="none" stroke="#D4915A" stroke-width="0.8" opacity="0.3"/>
      <path d="M351,268 C349,272 348,276 346,278" fill="none" stroke="#D4915A" stroke-width="0.8" opacity="0.3"/>
    </g>
  </g>

  <!-- ====== FLOOR SHADOW ====== -->
  <ellipse cx="313" cy="592" rx="120" ry="10" fill="#000" opacity="0.08"/>

</svg>